#Comment line ignore any data following # character 
#Hierarchical Translation and Rotation (.htr) file 
[Header]	
#Header keywords are followed by a single value 
FileType HTR		#Single word string
DataType HTRS		#Translation followed by rotation and scale data
FileVersion 1		#integer
NumSegments 84		#integer
NumFrames 2		#integer
DataFrameRate 30		#integer, data frame rate in this file
EulerRotationOrder ZYX
CalibrationUnits mm
RotationUnits Degrees
GlobalAxisofGravity Y
BoneLengthAxis Y
ScaleFactor 1.00
[SegmentNames&Hierarchy]
#CHILD	PARENT
MASTER GLOBAL
root MASTER
chest root
L_mid_tent01 root
R_mid_tent01 root
spine01 root
Bip01_Neck chest
L_humerus chest
R_humerus chest
weapon_bone chest
Bip01_Head Bip01_Neck
eye_left_bone Bip01_Head
eye_right_bone Bip01_Head
L_forearm L_humerus
L_front_hand L_forearm
L_weapon_bone L_forearm
L_front_hand01_01 L_front_hand
L_front_hand02_01 L_front_hand
L_front_hand03_01 L_front_hand
L_front_hand01_02 L_front_hand01_01
L_front_hand02_02 L_front_hand02_01
L_front_hand03_02 L_front_hand03_01
R_forearm R_humerus
R_front_hand R_forearm
R_weapon_bone R_forearm
R_front_hand01_01 R_front_hand
R_front_hand02_01 R_front_hand
R_front_hand03_01 R_front_hand
R_front_hand01_02 R_front_hand01_01
R_front_hand02_02 R_front_hand02_01
R_front_hand03_02 R_front_hand03_01
null_rope01_connect L_mid_tent01
Rope1_Seg01 null_rope01_connect
Rope1_Seg02 Rope1_Seg01
Rope1_Seg03 Rope1_Seg02
Rope1_Seg04 Rope1_Seg03
Rope1_Seg05 Rope1_Seg04
Rope1_Seg06 Rope1_Seg05
Rope1_Seg07 Rope1_Seg06
Rope1_Seg09 Rope1_Seg07
L_mid_hand01 Rope1_Seg09
L_mid_hand02 Rope1_Seg09
L_mid_hand03 Rope1_Seg09
null_rope02_connect R_mid_tent01
Rope2_Seg01 null_rope02_connect
Rope2_Seg02 Rope2_Seg01
Rope2_Seg03 Rope2_Seg02
Rope2_Seg04 Rope2_Seg03
Rope2_Seg05 Rope2_Seg04
Rope2_Seg06 Rope2_Seg05
Rope2_Seg07 Rope2_Seg06
Rope2_Seg09 Rope2_Seg07
R_mid_hand01 Rope2_Seg09
R_mid_hand02 Rope2_Seg09
R_mid_hand03 Rope2_Seg09
spine02 spine01
spine03 spine02
pelvis spine03
null_rope03_connect pelvis
null_rope04_connect pelvis
Rope3_Seg01 null_rope03_connect
Rope3_Seg02 Rope3_Seg01
Rope3_Seg03 Rope3_Seg02
Rope3_Seg04 Rope3_Seg03
Rope3_Seg05 Rope3_Seg04
Rope3_Seg06 Rope3_Seg05
Rope3_Seg07 Rope3_Seg06
Rope3_Seg08 Rope3_Seg07
Rope3_Seg09 Rope3_Seg08
R_rear_hand01 Rope3_Seg09
R_rear_hand02 Rope3_Seg09
R_rear_hand03 Rope3_Seg09
Rope4_Seg01 null_rope04_connect
Rope4_Seg02 Rope4_Seg01
Rope4_Seg03 Rope4_Seg02
Rope4_Seg04 Rope4_Seg03
Rope4_Seg05 Rope4_Seg04
Rope4_Seg06 Rope4_Seg05
Rope4_Seg07 Rope4_Seg06
Rope4_Seg08 Rope4_Seg07
Rope4_Seg09 Rope4_Seg08
L_rear_hand01 Rope4_Seg09
L_rear_hand02 Rope4_Seg09
L_rear_hand03 Rope4_Seg09
[BasePosition]
#SegmentName Tx, Ty, Tz, Rx, Ry, Rz, BoneLength
MASTER 0.000000 0.000000 0.000000 -90.000000 0.000000 0.000000 10.000000 
root 0.000000 0.000000 0.000000 0.000000 0.000000 0.000000 10.000000 
chest 0.000000 0.000000 0.000000 0.000000 0.000000 0.000000 10.000000 
L_mid_tent01 0.000000 0.000000 0.000000 0.000000 0.000000 0.000000 10.000000 
R_mid_tent01 0.000000 0.000000 0.000000 0.000000 0.000000 0.000000 10.000000 
spine01 0.000000 0.000000 0.000000 0.000000 0.000000 0.000000 10.000000 
Bip01_Neck 0.000000 0.000000 0.000000 0.000000 0.000000 0.000000 10.000000 
L_humerus 0.000000 0.000000 0.000000 0.000000 0.000000 0.000000 10.000000 
R_humerus 0.000000 0.000000 0.000000 0.000000 0.000000 0.000000 10.000000 
weapon_bone 0.000000 0.000000 0.000000 0.000000 0.000000 0.000000 10.000000 
Bip01_Head 0.000000 0.000000 0.000000 0.000000 0.000000 0.000000 10.000000 
eye_left_bone 0.000000 0.000000 0.000000 0.000000 0.000000 0.000000 10.000000 
eye_right_bone 0.000000 0.000000 0.000000 0.000000 0.000000 0.000000 10.000000 
L_forearm 0.000000 0.000000 0.000000 0.000000 0.000000 0.000000 10.000000 
L_front_hand 0.000000 0.000000 0.000000 0.000000 0.000000 0.000000 10.000000 
L_weapon_bone 0.000000 0.000000 0.000000 0.000000 0.000000 0.000000 10.000000 
L_front_hand01_01 0.000000 0.000000 0.000000 0.000000 0.000000 0.000000 10.000000 
L_front_hand02_01 0.000000 0.000000 0.000000 0.000000 0.000000 0.000000 10.000000 
L_front_hand03_01 0.000000 0.000000 0.000000 0.000000 0.000000 0.000000 10.000000 
L_front_hand01_02 0.000000 0.000000 0.000000 0.000000 0.000000 0.000000 10.000000 
L_front_hand02_02 0.000000 0.000000 0.000000 0.000000 0.000000 0.000000 10.000000 
L_front_hand03_02 0.000000 0.000000 0.000000 0.000000 0.000000 0.000000 10.000000 
R_forearm 0.000000 0.000000 0.000000 0.000000 0.000000 0.000000 10.000000 
R_front_hand 0.000000 0.000000 0.000000 0.000000 0.000000 0.000000 10.000000 
R_weapon_bone 0.000000 0.000000 0.000000 0.000000 0.000000 0.000000 10.000000 
R_front_hand01_01 0.000000 0.000000 0.000000 0.000000 0.000000 0.000000 10.000000 
R_front_hand02_01 0.000000 0.000000 0.000000 0.000000 0.000000 0.000000 10.000000 
R_front_hand03_01 0.000000 0.000000 0.000000 0.000000 0.000000 0.000000 10.000000 
R_front_hand01_02 0.000000 0.000000 0.000000 0.000000 0.000000 0.000000 10.000000 
R_front_hand02_02 0.000000 0.000000 0.000000 0.000000 0.000000 0.000000 10.000000 
R_front_hand03_02 0.000000 0.000000 0.000000 0.000000 0.000000 0.000000 10.000000 
null_rope01_connect 0.000000 0.000000 0.000000 0.000000 0.000000 0.000000 10.000000 
Rope1_Seg01 0.000000 0.000000 0.000000 0.000000 0.000000 0.000000 10.000000 
Rope1_Seg02 0.000000 0.000000 0.000000 0.000000 0.000000 0.000000 10.000000 
Rope1_Seg03 0.000000 0.000000 0.000000 0.000000 0.000000 0.000000 10.000000 
Rope1_Seg04 0.000000 0.000000 0.000000 0.000000 0.000000 0.000000 10.000000 
Rope1_Seg05 0.000000 0.000000 0.000000 0.000000 0.000000 0.000000 10.000000 
Rope1_Seg06 0.000000 0.000000 0.000000 0.000000 0.000000 0.000000 10.000000 
Rope1_Seg07 0.000000 0.000000 0.000000 0.000000 0.000000 0.000000 10.000000 
Rope1_Seg09 0.000000 0.000000 0.000000 0.000000 0.000000 0.000000 10.000000 
L_mid_hand01 0.000000 0.000000 0.000000 0.000000 0.000000 0.000000 10.000000 
L_mid_hand02 0.000000 0.000000 0.000000 0.000000 0.000000 0.000000 10.000000 
L_mid_hand03 0.000000 0.000000 0.000000 0.000000 0.000000 0.000000 10.000000 
null_rope02_connect 0.000000 0.000000 0.000000 0.000000 0.000000 0.000000 10.000000 
Rope2_Seg01 0.000000 0.000000 0.000000 0.000000 0.000000 0.000000 10.000000 
Rope2_Seg02 0.000000 0.000000 0.000000 0.000000 0.000000 0.000000 10.000000 
Rope2_Seg03 0.000000 0.000000 0.000000 0.000000 0.000000 0.000000 10.000000 
Rope2_Seg04 0.000000 0.000000 0.000000 0.000000 0.000000 0.000000 10.000000 
Rope2_Seg05 0.000000 0.000000 0.000000 0.000000 0.000000 0.000000 10.000000 
Rope2_Seg06 0.000000 0.000000 0.000000 0.000000 0.000000 0.000000 10.000000 
Rope2_Seg07 0.000000 0.000000 0.000000 0.000000 0.000000 0.000000 10.000000 
Rope2_Seg09 0.000000 0.000000 0.000000 0.000000 0.000000 0.000000 10.000000 
R_mid_hand01 0.000000 0.000000 0.000000 0.000000 0.000000 0.000000 10.000000 
R_mid_hand02 0.000000 0.000000 0.000000 0.000000 0.000000 0.000000 10.000000 
R_mid_hand03 0.000000 0.000000 0.000000 0.000000 0.000000 0.000000 10.000000 
spine02 0.000000 0.000000 0.000000 0.000000 0.000000 0.000000 10.000000 
spine03 0.000000 0.000000 0.000000 0.000000 0.000000 0.000000 10.000000 
pelvis 0.000000 0.000000 0.000000 0.000000 0.000000 0.000000 10.000000 
null_rope03_connect 0.000000 0.000000 0.000000 0.000000 0.000000 0.000000 10.000000 
null_rope04_connect 0.000000 0.000000 0.000000 0.000000 0.000000 0.000000 10.000000 
Rope3_Seg01 0.000000 0.000000 0.000000 0.000000 0.000000 0.000000 10.000000 
Rope3_Seg02 0.000000 0.000000 0.000000 0.000000 0.000000 0.000000 10.000000 
Rope3_Seg03 0.000000 0.000000 0.000000 0.000000 0.000000 0.000000 10.000000 
Rope3_Seg04 0.000000 0.000000 0.000000 0.000000 0.000000 0.000000 10.000000 
Rope3_Seg05 0.000000 0.000000 0.000000 0.000000 0.000000 0.000000 10.000000 
Rope3_Seg06 0.000000 0.000000 0.000000 0.000000 0.000000 0.000000 10.000000 
Rope3_Seg07 0.000000 0.000000 0.000000 0.000000 0.000000 0.000000 10.000000 
Rope3_Seg08 0.000000 0.000000 0.000000 0.000000 0.000000 0.000000 10.000000 
Rope3_Seg09 0.000000 0.000000 0.000000 0.000000 0.000000 0.000000 10.000000 
R_rear_hand01 0.000000 0.000000 0.000000 0.000000 0.000000 0.000000 10.000000 
R_rear_hand02 0.000000 0.000000 0.000000 0.000000 0.000000 0.000000 10.000000 
R_rear_hand03 0.000000 0.000000 0.000000 0.000000 0.000000 0.000000 10.000000 
Rope4_Seg01 0.000000 0.000000 0.000000 0.000000 0.000000 0.000000 10.000000 
Rope4_Seg02 0.000000 0.000000 0.000000 0.000000 0.000000 0.000000 10.000000 
Rope4_Seg03 0.000000 0.000000 0.000000 0.000000 0.000000 0.000000 10.000000 
Rope4_Seg04 0.000000 0.000000 0.000000 0.000000 0.000000 0.000000 10.000000 
Rope4_Seg05 0.000000 0.000000 0.000000 0.000000 0.000000 0.000000 10.000000 
Rope4_Seg06 0.000000 0.000000 0.000000 0.000000 0.000000 0.000000 10.000000 
Rope4_Seg07 0.000000 0.000000 0.000000 0.000000 0.000000 0.000000 10.000000 
Rope4_Seg08 0.000000 0.000000 0.000000 0.000000 0.000000 0.000000 10.000000 
Rope4_Seg09 0.000000 0.000000 0.000000 0.000000 0.000000 0.000000 10.000000 
L_rear_hand01 0.000000 0.000000 0.000000 0.000000 0.000000 0.000000 10.000000 
L_rear_hand02 0.000000 0.000000 0.000000 0.000000 0.000000 0.000000 10.000000 
L_rear_hand03 0.000000 0.000000 0.000000 0.000000 0.000000 0.000000 10.000000 
#Beginning of Data. Separated by tabs
#Fr	Tx	Ty	Tz	Rx	Ry	Rz	SF
[MASTER]
3 151.327744 -0.000023 0.000000 0.002347 0.000000 89.997704 151.327744
4 285.394531 -0.000043 0.000000 0.002347 0.000000 89.997704 285.394531
[root]
3 -62.822105 16.502304 1295.367432 -123.283745 -27.896799 -179.323059 1296.994995
4 -62.822105 16.502304 1200.238281 -140.339981 -27.837046 -178.889069 1201.994507
[chest]
3 -84.512650 -34.090519 0.000000 -27.114052 5.262923 178.402466 91.129311
4 -84.512650 -34.090519 0.000000 -48.086601 7.168365 174.458847 91.129311
[L_mid_tent01]
3 27.378273 22.132376 -250.423874 -23.373045 18.737135 36.794228 252.886398
4 27.417620 22.109814 -250.676834 -28.566494 8.031593 23.673632 253.139175
[R_mid_tent01]
3 23.228794 24.509907 226.238495 -167.764603 -49.147419 45.828403 228.744751
4 23.228794 24.509907 226.238495 -155.772797 -45.259197 29.647505 228.744751
[spine01]
3 -0.361383 -0.195265 0.000000 -0.212536 0.631264 3.329443 0.410763
4 -0.361383 -0.195265 0.000000 0.676368 0.667461 -1.349595 0.410763
[Bip01_Neck]
3 165.484543 71.581718 0.000119 175.896118 1.177290 24.871183 180.302734
4 165.484543 71.581718 0.000119 175.896118 1.177290 24.871183 180.302734
[L_humerus]
3 -13.983130 -135.272980 -120.471481 170.940796 81.564224 -99.189163 181.680161
4 -13.983130 -135.272980 -120.471481 170.940796 81.564224 -99.189163 181.680161
[R_humerus]
3 -13.983309 -135.273102 125.287651 -159.666046 -68.957870 -101.166077 184.909012
4 -13.983309 -135.273102 125.287651 -159.666046 -68.957870 -101.166077 184.909012
[weapon_bone]
3 235.964890 -300.705902 0.000000 0.000000 -89.951546 -128.212341 382.234833
4 235.964890 -300.705902 0.000000 0.000000 -89.951546 -128.212341 382.234833
[Bip01_Head]
3 261.355835 108.959358 -2.864180 2.248029 5.843377 -62.458344 283.173492
4 261.355835 108.959373 -2.864175 2.248029 5.843377 -62.458344 283.173492
[eye_left_bone]
3 -24.626970 125.451866 -64.772606 0.000000 -90.000000 -99.840431 143.318359
4 -24.626970 125.451866 -64.772606 0.000000 -90.000000 -99.840431 143.318359
[eye_right_bone]
3 -24.626970 125.451866 64.327362 0.000000 -89.960434 80.159386 143.117676
4 -24.626970 125.451866 64.327362 0.000000 -89.960434 80.159386 143.117676
[L_forearm]
3 322.776093 0.000000 -0.000119 0.000471 0.002300 -66.859398 322.776093
4 322.776093 0.000000 -0.000119 0.000471 0.002300 -66.859398 322.776093
[L_front_hand]
3 241.149185 -0.042021 -3.300071 -178.667953 -1.835447 -27.422350 241.171753
4 241.149185 -0.042021 -3.300071 -178.667953 -1.835447 -27.422350 241.171753
[L_weapon_bone]
3 156.183838 0.000000 0.000000 0.002028 0.001182 29.501106 156.183838
4 156.183838 0.000000 0.000000 0.002126 0.000995 39.830204 156.183838
[L_front_hand01_01]
3 86.095154 20.947098 -0.655860 -0.345630 -0.486632 72.985954 88.609184
4 86.095154 20.947098 -0.655860 -0.358019 -0.483663 74.277168 88.609184
[L_front_hand02_01]
3 86.935165 -11.437475 24.513514 150.809296 -58.778587 -57.192558 91.046425
4 86.935165 -11.437475 24.513514 152.710815 -59.393673 -59.407352 91.046425
[L_front_hand03_01]
3 86.637497 -14.123976 -20.424902 -150.571686 56.997833 -58.742687 90.126129
4 86.637497 -14.123976 -20.424902 -152.345215 57.619305 -60.852303 90.126129
[L_front_hand01_02]
3 71.020905 -0.000179 0.000030 0.000334 -0.002323 -106.379379 71.020905
4 71.020905 -0.000179 0.000030 0.001534 0.001777 -8.378850 71.020905
[L_front_hand02_02]
3 71.020927 -0.000119 0.000060 0.000334 -0.002323 -106.379379 71.020927
4 71.020927 -0.000119 0.000060 0.001534 0.001777 -8.378850 71.020927
[L_front_hand03_02]
3 71.020905 -0.000060 0.000060 0.000334 -0.002323 -106.379379 71.020905
4 71.020905 -0.000060 0.000060 0.001534 0.001777 -8.378850 71.020905
[R_forearm]
3 322.776428 -0.000060 0.000030 0.199694 -0.075621 -69.903069 322.776428
4 322.776428 -0.000060 0.000030 0.199694 -0.075621 -69.903076 322.776428
[R_front_hand]
3 238.847015 -0.006795 2.210259 -1.531694 0.790216 -51.443054 238.857239
4 238.847015 -0.006795 2.210259 -1.531694 0.790216 -51.443054 238.857239
[R_weapon_bone]
3 155.664093 0.002503 -0.000030 0.003037 0.002080 -122.425827 155.664078
4 155.664093 0.002503 -0.000030 0.002838 0.002344 -132.705109 155.664078
[R_front_hand01_01]
3 87.624611 14.231146 22.918642 -151.019943 -58.847031 57.544685 91.683487
4 87.624611 14.231146 22.918642 -154.633499 -59.950619 61.746044 91.683487
[R_front_hand02_01]
3 89.356956 14.367283 -19.491137 151.211227 57.208401 59.740421 92.579636
4 89.356956 14.367283 -19.491137 154.602661 58.302849 63.744389 92.579636
[R_front_hand03_01]
3 87.286232 -22.307278 -0.143439 0.142368 -0.428417 -73.368439 90.091743
4 87.286232 -22.307278 -0.143439 0.162155 -0.423168 -75.767921 90.091743
[R_front_hand01_02]
3 71.020905 0.000060 0.000119 0.002323 -0.000334 106.381386 71.020905
4 71.020905 0.000060 0.000119 0.001777 0.001534 8.377220 71.020905
[R_front_hand02_02]
3 71.020844 -0.000030 -0.000119 0.002323 -0.000334 106.381386 71.020836
4 71.020844 -0.000030 -0.000119 0.001777 0.001534 8.377220 71.020836
[R_front_hand03_02]
3 71.020905 0.000000 0.000030 0.002323 -0.000334 106.381386 71.020905
4 71.020905 0.000000 0.000030 0.001777 0.001534 8.377220 71.020905
[null_rope01_connect]
3 328.732483 0.000000 -0.000238 -152.507080 -27.402822 -129.965363 328.732483
4 328.732483 0.000000 -0.000238 -156.995590 -10.800437 -112.647743 328.732483
[Rope1_Seg01]
3 0.000000 0.000000 0.000000 -28.165619 49.036552 145.560837 0.000000
4 0.000000 0.000000 0.000000 -12.587432 38.540928 166.586960 0.000000
[Rope1_Seg02]
3 139.999863 -0.000179 0.000000 2.097792 -0.255273 -6.798591 139.999863
4 139.999863 -0.000179 0.000000 0.930357 -1.029382 -9.955798 139.999863
[Rope1_Seg03]
3 139.999924 0.000060 -0.000060 5.789566 -0.935858 -12.943592 139.999924
4 139.999924 0.000060 -0.000060 5.635017 -2.592659 -21.603559 139.999924
[Rope1_Seg04]
3 139.999924 -0.000060 -0.000119 24.343552 -4.441817 -28.610476 139.999924
4 139.999924 -0.000060 -0.000119 26.486290 -7.989042 -38.875786 139.999924
[Rope1_Seg05]
3 139.999832 0.000119 -0.000060 44.294483 -19.346594 -30.511992 139.999832
4 139.999832 0.000119 -0.000060 29.481501 -15.436892 -25.025080 139.999832
[Rope1_Seg06]
3 139.999954 0.000119 -0.000060 7.266376 -8.725357 -2.432178 139.999954
4 139.999954 0.000119 -0.000060 7.984080 -7.804862 -4.917790 139.999954
[Rope1_Seg07]
3 139.999985 0.000060 0.000000 2.792328 -4.128859 -0.663364 139.999985
4 139.999985 0.000060 0.000000 3.292616 -3.963442 -1.696566 139.999985
[Rope1_Seg09]
3 121.602913 0.000119 -0.000089 -89.793175 -1.359789 0.847147 121.602913
4 121.602913 0.000119 -0.000089 -89.793175 -1.359789 0.847147 121.602913
[L_mid_hand01]
3 103.859421 1.038730 8.195221 111.431305 -47.263851 -16.612017 104.187431
4 103.859421 1.038730 8.195221 111.431305 -47.263851 -16.612017 104.187431
[L_mid_hand02]
3 105.572853 -4.139662 -10.864139 -150.709808 35.166882 -45.161087 106.211075
4 105.572853 -4.139662 -10.864139 -150.709808 35.166882 -45.161087 106.211075
[L_mid_hand03]
3 104.641464 17.579376 -3.913581 -12.649597 13.975001 50.985863 106.179977
4 104.641464 17.579376 -3.913581 -12.649596 13.974999 50.985855 106.179977
[null_rope02_connect]
3 328.732849 0.000179 -0.000119 -92.771118 64.337593 27.527678 328.732849
4 328.732849 0.000179 -0.000119 -54.051643 67.686569 57.721630 328.732849
[Rope2_Seg01]
3 -0.000073 0.000134 0.000153 44.846722 81.284538 -21.129101 0.000216
4 -0.000072 0.000134 0.000153 -38.156898 69.147034 -109.844589 0.000215
[Rope2_Seg02]
3 139.999741 -0.000060 -0.000119 -1.986732 15.011878 -0.324985 139.999756
4 139.999741 -0.000060 -0.000119 -1.603855 14.916595 -2.393337 139.999756
[Rope2_Seg03]
3 140.000107 0.000030 0.000000 -9.438386 26.504826 -0.299047 140.000107
4 140.000107 0.000030 0.000000 -12.530884 33.213146 -4.812870 140.000107
[Rope2_Seg04]
3 139.999802 0.000000 -0.000060 -46.657829 33.187492 7.556916 139.999802
4 139.999802 0.000000 -0.000060 -87.022552 38.578918 2.702721 139.999802
[Rope2_Seg05]
3 139.999985 -0.000060 0.000119 -30.012070 5.948104 13.398151 139.999985
4 139.999985 -0.000060 0.000119 -31.601936 0.242646 16.354715 139.999985
[Rope2_Seg06]
3 139.999893 -0.000030 -0.000119 -8.777928 -0.434031 5.642317 139.999893
4 139.999893 -0.000030 -0.000119 -6.140222 -3.423549 5.672622 139.999893
[Rope2_Seg07]
3 139.999893 0.000060 -0.000060 -4.074814 -0.701863 3.045810 139.999893
4 139.999893 0.000060 -0.000060 -2.462787 -2.188622 2.854353 139.999893
[Rope2_Seg09]
3 121.338966 0.000089 -0.000060 33.793236 -1.359788 -0.847141 121.338966
4 121.338966 0.000089 -0.000060 33.793236 -1.359788 -0.847141 121.338966
[R_mid_hand01]
3 104.680779 11.144459 -10.335981 -34.269650 35.095989 42.885235 105.778534
4 104.680779 11.144459 -10.335981 -34.269650 35.095989 42.885235 105.778534
[R_mid_hand02]
3 104.070427 2.443552 8.231699 68.449066 -47.537163 16.779839 104.424065
4 104.070427 2.443552 8.231699 68.449066 -47.537163 16.779839 104.424065
[R_mid_hand03]
3 106.028137 -11.221827 -5.996406 -171.106766 13.128626 -52.726494 106.788818
4 106.028137 -11.221827 -5.996406 -171.106766 13.128626 -52.726494 106.788818
[spine02]
3 129.756927 0.001550 0.000119 -0.245322 -4.052060 -4.355547 129.756927
4 129.756927 0.001550 0.000119 -0.245322 -4.052060 -4.355547 129.756927
[spine03]
3 78.613739 0.087140 -4.898838 0.369659 4.260735 -4.885721 78.766273
4 78.613739 0.087146 -4.898857 0.369659 4.260734 -4.885720 78.766273
[pelvis]
3 169.435242 0.051022 0.000000 -0.010031 -0.194709 -1.851389 169.435257
4 169.435242 0.051022 0.000000 -0.010044 -0.196355 -1.828306 169.435257
[null_rope03_connect]
3 -1.257226 -2.466202 137.391083 -151.974625 -57.240135 -82.016022 137.418976
4 -1.257226 -2.466202 137.391083 -152.259323 -41.319927 -76.759254 137.418976
[null_rope04_connect]
3 -1.259640 -2.480268 -137.844437 -151.974625 -57.240135 -82.016022 137.872513
4 -1.259640 -2.480268 -137.844437 -152.259323 -41.319927 -76.759254 137.872513
[Rope3_Seg01]
3 0.000000 0.000000 0.000000 -22.064308 -33.309399 -17.614210 0.000000
4 0.000000 0.000000 0.000000 -26.494047 -15.708971 -5.998993 0.000000
[Rope3_Seg02]
3 139.999924 -0.000119 0.000060 -25.741671 -4.560403 31.545065 139.999924
4 139.999924 -0.000119 0.000060 -26.317858 1.635595 21.156143 139.999924
[Rope3_Seg03]
3 139.999924 -0.000119 0.000119 -35.044163 -15.351769 19.106829 139.999924
4 139.999924 -0.000119 0.000119 -57.670712 -8.546618 17.581041 139.999924
[Rope3_Seg04]
3 139.999924 0.000119 0.000000 -19.854994 -13.800293 7.810368 139.999924
4 139.999924 0.000119 0.000000 -25.331482 -13.460732 2.152213 139.999924
[Rope3_Seg05]
3 139.999924 -0.000238 0.000060 -24.352579 -22.068495 10.240509 139.999924
4 139.999924 -0.000238 0.000060 -22.041580 -21.844637 0.090260 139.999924
[Rope3_Seg06]
3 139.999893 -0.000119 -0.000060 -9.717663 -18.282520 0.528433 139.999893
4 139.999893 -0.000119 -0.000060 -7.187342 -20.112267 -7.431561 139.999893
[Rope3_Seg07]
3 139.999771 0.000060 -0.000119 -2.397436 -8.936311 -1.617168 139.999771
4 139.999771 0.000060 -0.000119 -0.993700 -9.055628 -5.364294 139.999771
[Rope3_Seg08]
3 139.999985 -0.000060 0.000000 -0.659663 -4.853185 -1.099056 139.999985
4 139.999985 -0.000060 0.000000 0.005679 -4.848088 -3.018497 139.999985
[Rope3_Seg09]
3 90.185997 -0.000179 -0.000060 89.793228 -1.359877 -0.847183 90.185997
4 90.185997 -0.000179 -0.000060 89.793228 -1.359877 -0.847183 90.185997
[R_rear_hand01]
3 103.366196 -6.073594 -10.757982 -166.970291 21.129854 -46.704182 104.101845
4 103.366196 -6.073594 -10.757982 -166.970291 21.129850 -46.704182 104.101845
[R_rear_hand02]
3 100.509819 12.039542 -7.992327 -28.148869 27.804199 44.102722 101.543350
4 100.509819 12.039542 -7.992327 -28.148869 27.804199 44.102722 101.543350
[R_rear_hand03]
3 101.539970 5.215704 5.435467 81.628395 -47.127728 10.016968 101.819031
4 101.539970 5.215704 5.435467 81.628380 -47.127724 10.016966 101.819031
[Rope4_Seg01]
3 0.000000 0.000000 0.000000 -70.852409 -60.183392 -146.559052 0.000000
4 0.000000 0.000000 0.000000 -29.598236 -79.146210 170.221375 0.000000
[Rope4_Seg02]
3 139.999985 0.000060 0.000119 -4.918428 7.064920 -47.913773 139.999985
4 139.999985 0.000060 0.000119 -7.842550 -1.299420 -37.012333 139.999985
[Rope4_Seg03]
3 139.999924 0.000000 -0.000238 -6.586656 1.990385 -25.951540 139.999924
4 139.999924 0.000000 -0.000238 -12.767033 -0.144177 -27.005753 139.999924
[Rope4_Seg04]
3 139.999985 0.000000 0.000119 -4.187986 5.041273 -10.331470 139.999985
4 139.999985 0.000000 0.000119 -7.749088 4.149553 -11.178702 139.999985
[Rope4_Seg05]
3 139.999802 -0.000060 -0.000119 -4.524240 10.094848 -9.964181 139.999802
4 139.999802 -0.000060 -0.000119 -5.160635 8.719484 -5.487854 139.999802
[Rope4_Seg06]
3 139.999924 0.000000 0.000060 -2.935245 10.670415 -8.707212 139.999924
4 139.999924 0.000000 0.000060 -3.218040 10.233685 -3.277285 139.999924
[Rope4_Seg07]
3 139.999802 0.000000 0.000000 -0.850772 5.941751 -5.150176 139.999802
4 139.999802 0.000000 0.000000 -1.443992 5.933548 -2.564588 139.999802
[Rope4_Seg08]
3 139.999924 0.000000 0.000119 -1.796947 3.689149 -3.124866 139.999924
4 139.999924 0.000000 0.000119 -2.201880 3.702245 -1.569157 139.999924
[Rope4_Seg09]
3 90.185791 0.000060 0.000060 -135.617828 2.228885 0.850567 90.185791
4 90.185791 0.000060 0.000060 -135.617828 2.228885 0.850567 90.185791
[L_rear_hand01]
3 101.696655 -8.392275 -7.654577 -27.705481 -28.251705 134.947800 102.329041
4 101.696655 -8.392275 -7.654577 -27.705481 -28.251705 134.947800 102.329041
[L_rear_hand02]
3 102.726799 -1.568258 5.773216 81.477219 48.065086 169.775513 102.900848
4 102.726799 -1.568258 5.773216 81.477219 48.065086 169.775513 102.900848
[L_rear_hand03]
3 104.552910 9.721220 -10.420293 -167.330078 -21.338425 -132.303940 105.519653
4 104.552910 9.721220 -10.420293 -167.330078 -21.338425 -132.303940 105.519653
